<svg xmlns="http://www.w3.org/2000/svg" width="400" height="400" id="rating"><path fill="#2A94F4" d="M378.414 200.001a10.66 10.66 0 0 1-3.61 7.998l-33.849 29.768 14.428 42.71a10.665 10.665 0 0 1-.868 8.732 10.67 10.67 0 0 1-7.13 5.113l-44.196 8.867-8.862 44.194a10.655 10.655 0 0 1-10.443 8.559c-1.148 0-2.298-.187-3.407-.565l-42.703-14.422L208 374.798c-2.023 2.301-4.936 3.616-7.998 3.616s-5.976-1.315-7.994-3.616l-29.773-33.843-42.703 14.422a10.567 10.567 0 0 1-3.408.565 10.65 10.65 0 0 1-5.326-1.429 10.665 10.665 0 0 1-5.117-7.13l-8.867-44.194-44.194-8.867a10.654 10.654 0 0 1-7.125-5.113 10.631 10.631 0 0 1-.868-8.732l14.421-42.71-33.843-29.768a10.646 10.646 0 0 1-3.615-7.998c0-3.063 1.314-5.976 3.615-8l33.843-29.768-14.421-42.709a10.655 10.655 0 0 1 7.993-13.85l44.194-8.862 8.867-44.195a10.657 10.657 0 0 1 10.443-8.556c1.145 0 2.295.186 3.408.559l42.703 14.426 29.773-33.842c2.019-2.3 4.932-3.616 7.994-3.616s5.975 1.315 7.998 3.616l29.774 33.842 42.703-14.426a10.666 10.666 0 0 1 8.733.868 10.641 10.641 0 0 1 5.117 7.129l8.862 44.195 44.196 8.862a10.673 10.673 0 0 1 7.13 5.118 10.665 10.665 0 0 1 .868 8.732l-14.428 42.709 33.849 29.768a10.665 10.665 0 0 1 3.61 8z"></path><path fill="#FFBE55" d="m291.596 188.347-38.392 37.426 9.063 52.838a10.207 10.207 0 0 1-14.815 10.76L200 264.425l-47.455 24.946a10.192 10.192 0 0 1-10.752-.774 10.208 10.208 0 0 1-4.063-9.986l9.063-52.838-38.391-37.426a10.214 10.214 0 0 1-2.584-10.466 10.219 10.219 0 0 1 8.243-6.951l53.055-7.708 23.726-48.074c1.722-3.485 5.271-5.694 9.158-5.694s7.433 2.209 9.155 5.694l23.726 48.074 53.059 7.708a10.212 10.212 0 0 1 8.238 6.951 10.203 10.203 0 0 1-2.582 10.466z"></path></svg>