<?xml version="1.0" encoding="UTF-8"?>
<svg xmlns="http://www.w3.org/2000/svg" xmlns:xlink="http://www.w3.org/1999/xlink" width="30px" height="30px" viewBox="0 0 30 30" version="1.1">
<g id="surface1">
<path style=" stroke:none;fill-rule:nonzero;fill:rgb(0%,0%,0%);fill-opacity:1;" d="M 28.695312 15.976562 C 28.371094 15.976562 28.042969 15.847656 27.78125 15.621094 L 15 3.128906 L 2.21875 15.621094 C 1.695312 16.109375 0.878906 16.109375 0.359375 15.585938 C -0.128906 15.066406 -0.128906 14.25 0.390625 13.726562 L 14.085938 0.359375 C 14.609375 -0.128906 15.390625 -0.128906 15.914062 0.359375 L 29.609375 13.726562 C 30.128906 14.21875 30.128906 15.066406 29.640625 15.585938 C 29.378906 15.847656 29.023438 15.976562 28.695312 15.976562 Z M 25.824219 28.695312 L 25.824219 15.945312 C 25.824219 15.226562 25.238281 14.640625 24.523438 14.640625 C 23.804688 14.640625 23.21875 15.226562 23.21875 15.945312 L 23.21875 27.390625 L 19.140625 27.390625 L 19.140625 20.414062 C 19.140625 19.46875 18.359375 18.683594 17.414062 18.683594 L 12.585938 18.683594 C 11.640625 18.683594 10.859375 19.46875 10.859375 20.414062 L 10.859375 27.390625 L 6.78125 27.390625 L 6.78125 15.945312 C 6.78125 15.226562 6.195312 14.640625 5.476562 14.640625 C 4.761719 14.640625 4.175781 15.226562 4.175781 15.945312 L 4.175781 28.695312 C 4.175781 29.414062 4.761719 30 5.476562 30 L 12.164062 30 C 12.878906 30 13.46875 29.414062 13.46875 28.695312 L 13.46875 21.292969 L 16.566406 21.292969 L 16.566406 28.695312 C 16.566406 29.414062 17.152344 30 17.871094 30 L 24.554688 30 C 25.273438 30 25.824219 29.414062 25.824219 28.695312 Z M 25.824219 28.695312 "/>
</g>
</svg>
